<?xml version="1.0" encoding="UTF-8"?><svg id="Layer_2" xmlns="http://www.w3.org/2000/svg" viewBox="0 0 1213.76 351.5"><defs><style>.cls-1,.cls-2{fill:#ebebeb;}.cls-3{fill:#303031;}.cls-4{fill:#1298c3;}.cls-2,.cls-5{stroke:#000;stroke-miterlimit:10;stroke-width:4px;}.cls-5{fill:none;}</style></defs><g id="Layer_1-2"><g><g><path class="cls-1" d="M663.19,349.07c-23.77,0-44.96-10.67-62.98-31.71-12.47-14.55-21.79-32.67-26.97-52.39-7.24-27.59-9.5-60.48-6.36-92.6,3.14-32.06,11.3-59.85,22.99-78.24,17.21-27.38,44.43-43.73,72.82-43.73s50.33,14.89,63.18,40.85c.66,1.33,1.32,2.65,1.99,3.98,.59,1.17,1.17,2.33,1.75,3.5,10.09,20.3,14.42,51.16,13.25,94.35-.06,2.12-1.83,3.85-3.95,3.85h-90.75l.48,91.72c.02,3.85,.52,7.42,1.49,10.62,4.43,11.96,11.98,18.55,21.28,18.55,15.51,0,32.52-18.55,33.1-46.15v-13.83c.54-5.87,3.98-7.93,6.78-8.63l.15-.03c4.04-.69,8.09-1.03,12.01-1.03,4.59,0,9.17,.48,13.61,1.41l.11,.02,.11,.04c2.14,.71,4.83,2.71,5.46,8.17,.61,3.78,.62,8.44,.02,14.13-5.3,37.64-23.93,62.44-55.38,73.78l-.08,.03-.08,.02c-8.27,2.19-16.35,3.31-24.02,3.31h0Zm-2.85-267.12c-7.27,0-11.72,1.2-11.72,24.79l.1,58.43c0,.44,.36,.79,.79,.79h21.88c.43,0,.78-.35,.78-.78v-61.16c0-22.08-3.46-22.08-11.83-22.08Z"/><path d="M662.69,52.41c24.64,0,48.16,13.01,61.39,39.74,1.24,2.5,2.5,4.99,3.74,7.48,10.71,21.55,14.11,54.11,13.04,93.41-.03,1.06-.9,1.9-1.95,1.9h-91.13c-.9,0-1.63,.73-1.62,1.63l.48,92.1c.02,3.8,.48,7.61,1.6,11.24,5.11,13.86,13.92,19.91,23.17,19.91,16.55,0,34.49-19.38,35.1-48.11v-13.69c.27-3.05,1.51-5.93,5.26-6.86,3.92-.67,7.81-1.01,11.68-1.01,4.44,0,8.84,.45,13.2,1.37,2.31,.77,3.69,2.92,4.1,6.5,.66,4.07,.55,8.73,.02,13.7-5.4,38.35-24.31,61.38-54.07,72.11-8.21,2.18-16.04,3.24-23.51,3.24-23.97,0-44.26-10.93-61.46-31.01-12.74-14.87-21.58-32.66-26.55-51.6-14.9-56.75-7.36-131.89,16.39-169.25,17.76-28.26,45.07-42.81,71.13-42.8m-13.18,115.56h21.88c1.54,0,2.78-1.25,2.78-2.78v-61.16c0-23.77-4.71-24.08-13.83-24.08s-13.72,3.02-13.72,26.79l.1,58.44c0,1.54,1.25,2.79,2.79,2.79m13.18-119.56h0c-29.07,0-56.92,16.7-74.51,44.67-11.84,18.63-20.11,46.73-23.28,79.1-3.17,32.35-.89,65.49,6.41,93.3,5.25,20.01,14.72,38.4,27.39,53.18,18.42,21.5,40.12,32.4,64.5,32.4,7.85,0,16.1-1.13,24.54-3.37l.17-.04,.16-.06c32.2-11.61,51.27-36.95,56.67-75.31v-.07s.02-.07,.02-.07c.62-5.83,.61-10.63-.03-14.67-.77-6.44-4.12-8.86-6.8-9.75l-.21-.07-.22-.05c-4.57-.97-9.29-1.46-14.02-1.46-4.04,0-8.19,.36-12.35,1.06l-.15,.03-.15,.04c-2.81,.7-7.61,2.98-8.28,10.39l-.02,.18v13.83c-.27,12.44-4.08,23.95-10.72,32.4-5.87,7.47-13.3,11.75-20.38,11.75-8.38,0-15.26-6.1-19.38-17.19-.9-3-1.37-6.36-1.39-9.99l-.47-89.71h88.74c3.25,0,5.86-2.55,5.95-5.8,1.18-43.53-3.22-74.7-13.46-95.3-.58-1.17-1.17-2.35-1.76-3.52-.66-1.32-1.33-2.64-1.98-3.96-6.73-13.59-16.12-24.19-27.89-31.51-11-6.84-23.83-10.45-37.08-10.45h0Zm-11.98,115.56l-.1-57.23c0-10.48,.93-17.09,2.85-20.21,1.05-1.71,2.4-2.58,6.87-2.58s6.14,.21,7.15,1.55c1.8,2.37,2.68,8.43,2.68,18.53v59.94h-19.46Z"/></g><g><path class="cls-1" d="M764.68,345.82c-1.63,0-3.17-.64-4.33-1.79s-1.79-2.69-1.79-4.33v-13.03c.13-3.98,1.92-7.6,5.31-10.84l.41-.38c.39-.37,.78-.73,1.14-1.12,4.32-4.59,5.21-7.28,5.2-8.73l-.35-211.5c0-2.37-.65-4.59-1.88-6.43-1.46-2.19-3.04-3.63-4.71-4.29l-.08-.03-.08-.04c-3.17-1.57-6.75-3.76-6.54-6.8v-14.19c0-5.11,5.72-9.08,10.64-9.08l57.9,.64c4.23,.04,7.67,3.52,7.67,7.75l.35,41.07,5.61-16.82c.39-1.16,.72-2.34,1.11-3.75,6.25-23.05,19.76-31.26,30.31-31.26,6.93,0,13.41,3.41,18.26,9.59,9.76,12.46,11.75,34.31,5.44,59.94l-.04,.14c-2.98,9.17-10.25,14.87-18.98,14.87-7.75,0-14.52-4.54-18.11-12.15-.96-2.03-1.92-3.58-3.03-4.86-2.69-3.13-4.33-3.59-5.07-3.59-.32,0-.82,.07-1.44,.7-2.39,2.45-3.67,9.66-3.42,19.29l-.02,170.89v.1c-.25,2.36,.64,4.67,2.7,7.06,.8,.94,1.86,1.69,2.87,2.36,3.47,2.3,5.28,6.45,5.39,12.33l.02,10.11c0,2.18-.84,4.24-2.38,5.78-1.54,1.55-3.59,2.4-5.78,2.4h-82.32Z"/><path d="M870.57,52.86c17.05,0,32.63,22.85,21.76,67.06-2.92,8.98-9.98,13.48-17.08,13.48-6.4,0-12.83-3.66-16.3-11-.9-1.9-1.95-3.72-3.32-5.31-2.53-2.95-4.74-4.29-6.59-4.29-4.77,0-7.19,8.91-6.86,22.04l-.03,170.74c-.3,3.05,.88,5.89,3.18,8.56,.93,1.08,2.09,1.93,3.28,2.72,2.9,1.92,4.4,5.48,4.5,10.7l.02,10.07c0,3.41-2.75,6.18-6.16,6.18h-82.32c-2.27,0-4.12-1.84-4.12-4.12v-13.03c.12-3.44,1.72-6.56,4.69-9.39,.55-.52,1.11-1.03,1.62-1.58,3.72-3.96,5.76-7.37,5.74-10.12l-.35-211.49c0-2.67-.73-5.31-2.22-7.54-1.65-2.48-3.52-4.2-5.64-5.04-3.42-1.7-5.59-3.35-5.43-4.93v-14.28c0-3.91,4.72-7.08,8.64-7.08,.02,0,.05,0,.07,0l57.81,.64c3.15,.03,5.7,2.59,5.7,5.75l.41,48.9c0,.26,.52,.46,.92,.46,.2,0,.37-.05,.42-.18l8.11-24.3c.42-1.27,.79-2.57,1.14-3.86,5.43-20,17.22-29.79,28.38-29.79m0-4v4s0-4,0-4c-6.85,0-13.48,2.95-19.15,8.54-5.83,5.74-10.36,14.11-13.09,24.2-.37,1.38-.7,2.52-1.07,3.64l-1.81,5.44-.25-29.09c0-5.29-4.33-9.67-9.66-9.72l-57.8-.64h-.11c-5.97,0-12.64,4.74-12.64,11.08v14.12c-.28,4.72,5.26,7.47,7.65,8.66l.15,.08,.16,.06c1.28,.5,2.55,1.69,3.78,3.54,1.01,1.51,1.54,3.35,1.54,5.32l.35,211.49c0,.58-.32,2.76-4.66,7.37-.31,.33-.67,.67-1.05,1.03l-.42,.4c-3.79,3.61-5.78,7.7-5.92,12.15v.06s0,.06,0,.06v13.03c0,2.17,.84,4.21,2.37,5.74,1.53,1.53,3.57,2.38,5.74,2.38h82.32c2.72,0,5.27-1.06,7.19-2.99,1.92-1.93,2.97-4.48,2.97-7.2l-.02-10.07v-.03s0-.03,0-.03c-.12-6.57-2.24-11.27-6.29-13.96-.89-.59-1.81-1.25-2.46-2-1.68-1.95-2.41-3.77-2.24-5.56l.02-.2v-.2s.03-170.74,.03-170.74v-.1c-.33-12.89,2.12-17.28,2.94-17.92,.3,.08,1.45,.52,3.48,2.88,.98,1.15,1.85,2.55,2.74,4.42,3.87,8.2,11.5,13.29,19.92,13.29,9.48,0,17.68-6.38,20.89-16.25l.05-.14,.03-.14c3.39-13.79,4.47-26.32,3.22-37.23-1.14-9.89-4.26-18.34-9.03-24.42-5.23-6.68-12.28-10.36-19.84-10.36h0Z"/></g><g><path class="cls-1" d="M933.85,345.82c-3.34,0-6.46-1.45-8.56-3.98-3.45-4.16-5.98-9.56-7.75-16.52-1-3.96-1.52-8.24-1.52-12.73l-.87-227.06h-9.2c-2.61,0-4.73-2.12-4.73-4.73v-19.24c.01-1.92,.81-3.79,2.19-5.13,.87-.85,2.06-1.38,3.36-1.51,10.53-1.04,23.43-8.12,35.37-19.42,1.16-1.09,2.66-1.69,4.22-1.69h38.74c1.99,0,3.63,1.62,3.66,3.61l.2,16.02h12.07c4.33,0,7.85,3.52,7.85,7.85v16.44c0,4.23-3.44,7.75-7.68,7.85l-12.5,.28,.88,219.83v.1c-.25,2.36,.64,4.67,2.7,7.06,.81,.94,1.86,1.69,2.87,2.36,3.47,2.3,5.28,6.45,5.39,12.33l.02,10.11c0,2.18-.84,4.24-2.38,5.78-1.54,1.55-3.59,2.4-5.78,2.4h-58.55Z"/><path d="M985.1,35.8c.91,0,1.64,.73,1.66,1.64l.21,17c0,.54,.44,.98,.98,1h13.08c3.23,0,5.85,2.62,5.85,5.85v16.44c0,3.18-2.54,5.78-5.72,5.85l-13.09,.29c-.76,.02-1.37,.64-1.37,1.41l.88,220.32c-.3,3.05,.88,5.89,3.18,8.56,.93,1.08,2.09,1.93,3.28,2.72,2.9,1.92,4.4,5.48,4.5,10.7l.02,10.07c0,3.41-2.75,6.18-6.16,6.18h-58.55c-2.71,0-5.29-1.18-7.02-3.26-3.39-4.08-5.75-9.43-7.35-15.73-1.01-4-1.45-8.12-1.46-12.24l-.87-227.42c-.01-.91-.76-1.65-1.67-1.65h-9.53c-1.51,0-2.73-1.22-2.73-2.73v-19.24c.01-1.41,.59-2.74,1.58-3.69,.58-.56,1.36-.88,2.16-.96,12.23-1.21,25.89-9.87,36.55-19.96,.77-.73,1.79-1.15,2.85-1.15h38.73m0-4h-38.73c-2.08,0-4.07,.8-5.6,2.24-11.46,10.84-24.24,17.9-34.19,18.88-1.74,.17-3.36,.9-4.55,2.06-1.77,1.71-2.78,4.1-2.78,6.56v19.24c-.01,3.71,3.01,6.74,6.72,6.74h7.21l.86,225.08c0,4.65,.54,9.1,1.58,13.21,1.84,7.25,4.51,12.91,8.15,17.3,2.48,2.99,6.16,4.71,10.1,4.71h58.55c2.72,0,5.27-1.06,7.19-2.99,1.92-1.93,2.97-4.48,2.97-7.2l-.02-10.07v-.03s0-.03,0-.03c-.12-6.57-2.24-11.27-6.29-13.96-.89-.59-1.81-1.25-2.46-2-1.68-1.95-2.41-3.77-2.24-5.56l.02-.21v-.21s-.87-217.77-.87-217.77l10.54-.23c5.31-.12,9.63-4.54,9.63-9.85v-16.44c0-5.43-4.42-9.85-9.85-9.85h-10.09l-.18-14.04c-.04-3.08-2.58-5.59-5.66-5.59h0Z"/></g><g><path class="cls-1" d="M1175.25,349.5c-19.39,0-41.53-7.3-47.45-27.51-15.13,17.44-34.37,27.38-53.17,27.38-12.76,0-24.61-4.64-34.27-13.41-6.87-6.24-12.29-14.6-15.69-24.18-9.61-27.09-10.61-68.84-2.38-99.27,4.12-15.22,13.47-28.4,26.34-37.1,16.32-11.03,39.6-21,64.26-31.56,4.45-1.91,8.95-3.83,13.47-5.79,.48-.21,.8-.69,.81-1.21l.35-36.23c.25-6.24-1.16-11.11-4.07-14.15-2.77-2.88-6.2-3.49-8.6-3.49-8.02,0-16.62,6.69-16.63,16.64v.55c0,.48,0,.97,0,1.45,1.62,28.19-6.75,35.1-26.1,39.91-6.96,1.54-13.17,2.32-18.5,2.32-17.94,0-27.48-8.55-28.34-25.42-1.31-15.91,3.43-29.86,14.07-41.42,15.58-16.91,43.02-27,73.41-27s55.1,9.18,71.01,25.18c12.05,13.15,17.86,28.2,17.33,44.8v189.85s5.64,5.5,5.64,5.5c2.5,2.44,4.18,5.63,4.73,8.97,.7,4.21,.14,8.42-1.67,12.54-1.06,2.43-2.81,4.45-5.05,5.84-6.85,4.27-17.88,6.82-29.5,6.82h0Zm-48.3-178.44c-14.72,3.85-23.48,13.01-27.53,28.78-3.71,14.44-2.9,32.57-2.12,50.11,.34,7.73,.7,15.72,.65,23.23,0,.92,0,2,.07,3.07,1.24,17.55,8.41,23.77,14.16,23.77,7.27,0,14.78-9.44,14.78-25.25l-.03-103.71Z"/><path d="M1112.74,52c26.58,0,53.17,8.07,69.59,24.59,12.31,13.44,17.24,27.98,16.75,43.32v190.04c.01,.46,.2,.91,.53,1.23l5.71,5.58c2.17,2.12,3.66,4.87,4.16,7.87,.66,3.97,.07,7.77-1.52,11.41-.89,2.04-2.38,3.77-4.27,4.95-6.43,4.01-17.11,6.51-28.44,6.51-19.97,0-41.95-7.79-46.22-28.86-.05-.25-.26-.39-.48-.39-.13,0-.27,.06-.37,.18-15.29,18.72-34.94,28.94-53.55,28.94-11.86,0-23.3-4.15-32.92-12.89-6.97-6.34-12-14.49-15.15-23.37-9.72-27.39-10.15-69.19-2.34-98.08,3.96-14.66,12.95-27.45,25.53-35.96,19.09-12.9,47.93-24.4,77.4-37.18,1.21-.52,2-1.71,2.01-3.03l.35-36.23c.56-13.89-6.75-19.65-14.67-19.65-8.93,0-18.62,7.34-18.63,18.64,0,.68,.01,1.35-.01,2.03,1.57,27.12-6.19,33.38-24.58,37.94-6.69,1.48-12.72,2.26-18.02,2.26-16.1,0-25.51-7.17-26.34-23.52-3.58-43.62,40.93-66.31,85.49-66.31m-.54,250.02c8.35,0,16.78-9.91,16.78-27.25l-.03-104.47c0-.8-.66-1.41-1.42-1.41-.11,0-.23,.01-.35,.04-42.82,10.57-30.97,62.88-31.22,104.23,0,1.08,0,2.15,.08,3.23,1.25,17.68,8.67,25.63,16.16,25.63m.54-254.02c-30.94,0-58.94,10.33-74.89,27.64-10.87,11.8-15.92,26.65-14.6,42.93,.93,17.83,11.42,27.26,30.33,27.26,5.48,0,11.84-.79,18.89-2.36h.05s.05-.02,.05-.02c9.71-2.41,17.17-5.38,22.04-12.03,4.67-6.37,6.39-15.58,5.58-29.84,.01-.5,.01-.99,0-1.45v-.52c0-7.07,5.89-14.64,14.63-14.64,2.01,0,4.88,.5,7.16,2.87,2.53,2.63,3.74,7,3.52,12.62v.06s0,.06,0,.06l-.34,35.8c-4.38,1.9-8.75,3.77-13.07,5.62-24.74,10.6-48.11,20.61-64.59,31.74-13.27,8.97-22.91,22.55-27.15,38.23-8.32,30.79-7.3,73.04,2.43,100.46,3.51,9.89,9.12,18.54,16.23,25,10.03,9.11,22.35,13.93,35.61,13.93,18.44,0,37.24-9.22,52.39-25.51,7.53,18.77,29.17,25.65,48.23,25.65,11.98,0,23.4-2.66,30.56-7.12,2.58-1.61,4.59-3.94,5.82-6.74,1.96-4.48,2.57-9.08,1.81-13.67-.62-3.76-2.51-7.34-5.31-10.07l-5.03-4.91V119.98c.52-17.11-5.47-32.62-17.82-46.09l-.06-.06-.06-.06c-16.28-16.38-42.68-25.77-72.43-25.77h0Zm-.54,250.02c-5.28,0-11.1-6.78-12.17-21.92-.07-1-.07-2.04-.07-2.92,.05-7.56-.31-15.57-.66-23.33-1.53-34.34-2.98-66.84,25.65-76.13l.03,101.05c0,14.55-6.5,23.25-12.78,23.25h0Z"/></g><g><path class="cls-1" d="M143.82,348.79c-22.12,0-41.15-8.06-56.56-23.96-25.1-25.89-37.98-70.58-36.27-125.83,1.69-54.52,10.53-92.12,27.05-114.95,14.69-20.31,35.59-29.77,65.79-29.77,24.57,0,46.2,9.01,62.55,26.06,24.27,25.3,35.92,67.15,33.67,121.03-1.91,45.85-10.72,81.85-26.18,106.98-16.51,26.83-40.08,40.44-70.05,40.44Zm3.49-266.04c-.44,0-.93,.14-1.47,.42-16.76,8.66-15.97,67.17-15.33,114.18,.12,9.11,.24,17.71,.24,25.81s-.1,15.97-.2,23.55c-.4,31.28-.75,58.29,7.43,66.58,1.78,1.81,3.95,2.68,6.62,2.68,2.34,0,4.27-.8,5.91-2.45,8.44-8.5,8.24-37.91,8.02-71.96-.04-5.95-.08-12.11-.08-18.41,0-5.96,.04-12.53,.08-19.47,.25-43.79,.64-109.96-9.35-120-.93-.94-1.63-.94-1.86-.94Z"/><path d="M143.82,56.28c53.5,0,98.44,43.8,94.23,145.01-3.69,88.71-33.92,145.5-94.23,145.5s-93.58-59.03-90.83-147.73c3.5-113.2,37.33-142.78,90.83-142.78m.78,261.7c18.69,0,15.85-42.45,15.85-94.82s2.68-142.42-13.14-142.41c-.75,0-1.55,.21-2.39,.64-21.12,10.91-16.17,89.4-16.17,141.77s-4.23,94.82,15.85,94.82m-.78-265.7c-30.89,0-52.31,9.72-67.41,30.6-16.75,23.16-25.72,61.13-27.42,116.06-1.73,55.8,11.36,101,36.84,127.29,15.58,16.07,35.64,24.57,57.99,24.57,30.71,0,54.85-13.93,71.75-41.39,15.64-25.43,24.55-61.75,26.47-107.95,2.26-54.43-9.57-96.79-34.23-122.5-16.74-17.45-38.87-26.68-63.99-26.68h0Zm.78,265.7v-4c-2.14,0-3.79-.66-5.2-2.09-7.59-7.69-7.25-34.32-6.85-65.15,.1-7.59,.2-15.43,.2-23.58s-.12-16.72-.24-25.83c-.32-23.95-.69-51.09,1.24-72.57,1.43-15.83,4.84-35.58,13.01-39.8,.3-.16,.49-.2,.55-.2,0,0,2.31,.92,4.53,10.76,1.57,6.96,2.76,16.96,3.54,29.71,1.46,23.87,1.28,54.14,1.14,78.45-.04,6.95-.08,13.51-.08,19.48,0,6.31,.04,12.48,.08,18.44,.22,33.6,.42,62.62-7.43,70.52-1.26,1.27-2.69,1.86-4.49,1.86v4h0Z"/></g><path class="cls-2" d="M368.03,312.58l-.36-192.06c1.21-21.67-8.67-24.13-22.38-19.94-1.03,.31-2.01,.73-2.93,1.24-3.06,1.68-4.9,4.96-4.91,8.45v4.57s-.03,190.74-.03,190.74c-.3,3.05,.88,5.88,3.18,8.56,.93,1.08,2.09,1.93,3.28,2.72,2.9,1.92,4.4,5.48,4.5,10.7l.02,10.07c0,3.41-2.75,6.18-6.16,6.18h-82.32c-2.27,0-4.12-1.84-4.12-4.12v-13.03c.12-3.44,1.72-6.56,4.69-9.39,.55-.52,1.11-1.03,1.63-1.58,3.72-3.96,5.76-7.37,5.74-10.11l-.37-222.05h-11.7v-21.21c0-3.93,3.21-7.11,7.14-7.08l68.81,.64c3.15,.03,5.7,2.59,5.7,5.75v18.86s.02,1.48,.02,1.48c0,.43,.35,.77,.77,.78,36.51-35.62,75.24-44.7,99.43,1.16,.08,.15,.17,.3,.27,.44l.49,.72c.14,.21,.38,.33,.63,.33,32.91-37.08,76.03-44.23,94.43-12.36,3,5.2,4.92,10.96,5.93,16.88h0c1.13,6.63,1.78,13.34,1.93,20.07l.26,11.63-.03,183.95c-.3,3.05,.88,5.88,3.18,8.56,.93,1.08,2.09,1.93,3.28,2.72,2.9,1.92,4.4,5.48,4.5,10.7l.02,10.07c0,3.41-2.75,6.18-6.16,6.18h-58.55c-2.71,0-5.29-1.18-7.02-3.26-3.39-4.08-5.75-9.43-7.35-15.73-1.01-4-1.45-8.12-1.46-12.24l-.36-192.06c1.21-21.67-8.67-24.13-22.38-19.95-4.69,1.43-8.45,5.01-10.06,9.64-1.08,3.11-1.6,6.5-1.6,9.28v2.13l-.03,183.95c-.3,3.05,.88,5.88,3.18,8.56,.93,1.08,2.09,1.93,3.28,2.72,2.9,1.92,4.4,5.48,4.5,10.7l.02,10.07c0,3.41-2.75,6.18-6.16,6.18h-58.55c-2.71,0-5.29-1.18-7.02-3.26-3.39-4.08-5.75-9.43-7.35-15.73-1.01-4-1.45-8.12-1.46-12.24"/><path class="cls-3" d="M37.51,128.08c-17.6,14.73-32.3,28.38-35.37,37.91-.69,2.15,1.28,4.23,3.49,3.75,107.94-23.64,216.59-53.58,270.08-86.17,4.33-2.64,2.14-10.6-2.72-9.16-9.58,2.83-32.86,4.76-47.02,.97-1.59-.43-2.98-1.42-3.86-2.82-14.97-24-26.55-47.34-34.82-69.06-.35-.91-1.23-1.51-2.2-1.49-57.99,.78-107.93,4-134.43,14.31-.42,.16-.69,.55-.72,1-2.46,38.69-6.27,75.64-12.04,110.08-.04,.27-.19,.51-.39,.68Z"/><path class="cls-4" d="M42.23,103.1c-1.42,7.98-2.83,16.2-4.22,24.64,58.52-26.23,125.98-49.84,186.71-53.07,.08,0,.76,.31,.72,.23-3.66-7.25-8.25-13.97-12.7-19.61-.26-.33-.67-.49-1.09-.45-76.24,8.23-133.47,24.02-169.42,48.26Z"/><path class="cls-5" d="M37.51,128.08c-17.6,14.73-32.3,28.38-35.37,37.91-.69,2.15,1.28,4.23,3.49,3.75,107.94-23.64,216.59-53.58,270.08-86.17,4.33-2.64,2.14-10.6-2.72-9.16-9.58,2.83-32.86,4.76-47.02,.97-1.59-.43-2.98-1.42-3.86-2.82-14.97-24-26.55-47.34-34.82-69.06-.35-.91-1.23-1.51-2.2-1.49-57.99,.78-107.93,4-134.43,14.31-.42,.16-.69,.55-.72,1-2.46,38.69-6.27,75.64-12.04,110.08-.04,.27-.19,.51-.39,.68Z"/></g></g></svg>